<svg width="21" height="25" viewBox="0 0 21 25" fill="none" xmlns="http://www.w3.org/2000/svg">
<path d="M19.8128 8.68242C19.6736 8.79043 17.2157 10.1754 17.2157 13.2549C17.2157 16.8168 20.3432 18.077 20.4368 18.1082C20.4224 18.185 19.94 19.8339 18.7879 21.5141C17.7606 22.9926 16.6877 24.4688 15.0555 24.4688C13.4233 24.4688 13.0033 23.5207 11.1191 23.5207C9.28292 23.5207 8.63005 24.5 7.13711 24.5C5.64416 24.5 4.60245 23.1319 3.40473 21.4517C2.01739 19.4787 0.896484 16.4136 0.896484 13.5045C0.896484 8.83843 3.93038 6.36379 6.91628 6.36379C8.50284 6.36379 9.82537 7.40549 10.8215 7.40549C11.7696 7.40549 13.2481 6.30138 15.0531 6.30138C15.7372 6.30138 18.195 6.36379 19.8128 8.68242ZM14.1962 4.32598C14.9427 3.4403 15.4707 2.21137 15.4707 0.982448C15.4707 0.812031 15.4563 0.639214 15.4251 0.5C14.2106 0.545605 12.7657 1.30888 11.8944 2.31938C11.2103 3.09706 10.5718 4.32598 10.5718 5.57171C10.5718 5.75893 10.603 5.94615 10.6175 6.00615C10.6943 6.02055 10.8191 6.03736 10.9439 6.03736C12.0336 6.03736 13.4041 5.30768 14.1962 4.32598Z" fill="#535D66"/>
</svg>
