<svg width="25" height="25" viewBox="0 0 25 25" fill="none" xmlns="http://www.w3.org/2000/svg">
<g clip-path="url(#clip0_134_4423)">
<path d="M12.3333 24.5017C18.9607 24.5017 24.3333 19.1291 24.3333 12.5017C24.3333 5.87429 18.9607 0.501709 12.3333 0.501709C5.7059 0.501709 0.333313 5.87429 0.333313 12.5017C0.333313 19.1291 5.7059 24.5017 12.3333 24.5017Z" fill="#78838D"/>
<path d="M17.0044 15.9712L17.536 12.5017H14.2082V10.2505C14.2082 9.30212 14.6723 8.37566 16.164 8.37566H17.6777V5.42249C17.6777 5.42249 16.3041 5.18793 14.9912 5.18793C12.2507 5.18793 10.4585 6.84845 10.4585 9.85731V12.5017H7.41083V15.9712H10.4585V24.3565C11.0694 24.4527 11.6955 24.5017 12.3333 24.5017C12.9712 24.5017 13.5973 24.451 14.2082 24.3565V15.9712H17.0044Z" fill="white"/>
</g>
<defs>
<clipPath id="clip0_134_4423">
<rect width="24" height="24" fill="white" transform="translate(0.333313 0.5)"/>
</clipPath>
</defs>
</svg>
