<svg width="24" height="25" viewBox="0 0 24 25" fill="none" xmlns="http://www.w3.org/2000/svg">
<path d="M23.745 12.77C23.745 11.98 23.675 11.23 23.555 10.5H12.255V15.01H18.725C18.435 16.49 17.585 17.74 16.325 18.59V21.59H20.185C22.445 19.5 23.745 16.42 23.745 12.77Z" fill="#535D66"/>
<path d="M12.255 24.5C15.495 24.5 18.205 23.42 20.185 21.59L16.325 18.59C15.245 19.31 13.875 19.75 12.255 19.75C9.12498 19.75 6.47499 17.64 5.52498 14.79H1.54498V17.88C3.51498 21.8 7.56498 24.5 12.255 24.5Z" fill="#78838D"/>
<path d="M5.52501 14.79C5.27501 14.07 5.14501 13.3 5.14501 12.5C5.14501 11.7 5.28501 10.93 5.52501 10.21V7.12H1.545C0.725004 8.74 0.255005 10.56 0.255005 12.5C0.255005 14.44 0.725004 16.26 1.545 17.88L5.52501 14.79Z" fill="#535D66"/>
<path d="M12.255 5.25C14.025 5.25 15.605 5.86 16.855 7.05L20.275 3.63C18.205 1.69 15.495 0.5 12.255 0.5C7.56498 0.5 3.51498 3.2 1.54498 7.12L5.52498 10.21C6.47499 7.36 9.12498 5.25 12.255 5.25Z" fill="#78838D"/>
</svg>
