<svg width="190" height="190" viewBox="0 0 190 190" fill="none" xmlns="http://www.w3.org/2000/svg">
<path d="M95 190C147.467 190 190 187.554 190 184.536C190 181.518 147.467 179.071 95 179.071C42.5329 179.071 0 181.518 0 184.536C0 187.554 42.5329 190 95 190Z" fill="#E6DDFF"/>
<path d="M129.794 183.354H49.9796C48.8677 183.366 47.7654 183.149 46.7431 182.719C45.7207 182.288 44.8006 181.652 44.0414 180.851C43.2822 180.051 42.7006 179.103 42.3335 178.069C41.9664 177.035 41.822 175.937 41.9093 174.845L53.0479 8.51C53.2344 6.21829 54.2805 4.07713 55.9822 2.50393C57.6839 0.930717 59.9192 0.0382114 62.2525 0.000387923H142.061C143.172 -0.0104694 144.273 0.206692 145.295 0.638052C146.317 1.06941 147.236 1.70553 147.994 2.50594C148.753 3.30634 149.334 4.2535 149.7 5.28718C150.067 6.32085 150.211 7.4184 150.124 8.51L138.999 174.845C138.813 177.136 137.767 179.277 136.065 180.851C134.363 182.424 132.128 183.316 129.794 183.354Z" fill="#535D66"/>
<path d="M146.598 44.7297H136.935C136.667 44.7324 136.401 44.68 136.155 44.576C135.908 44.4719 135.686 44.3185 135.503 44.1254C135.32 43.9322 135.179 43.7037 135.091 43.4542C135.002 43.2048 134.967 42.9399 134.988 42.6764L135.951 28.2693C136.005 27.7215 136.262 27.2125 136.673 26.8398C137.084 26.4671 137.621 26.257 138.179 26.2496H147.835C148.1 26.2473 148.363 26.2987 148.607 26.4007C148.851 26.5027 149.071 26.6531 149.254 26.8425C149.437 27.0319 149.578 27.2563 149.669 27.5018C149.76 27.7472 149.798 28.0085 149.782 28.2693L148.819 42.6764C148.775 43.2296 148.523 43.7467 148.112 44.1265C147.701 44.5063 147.161 44.7214 146.598 44.7297V44.7297Z" fill="#535D66"/>
<path d="M128.578 183.354H48.7633C47.6517 183.365 46.5499 183.148 45.528 182.717C44.5061 182.285 43.5865 181.649 42.8275 180.849C42.0685 180.049 41.4868 179.102 41.1194 178.068C40.7519 177.034 40.6067 175.937 40.693 174.845L51.8589 8.51004C52.0454 6.21833 53.0915 4.07717 54.7932 2.50397C56.4949 0.930757 58.7303 0.0382509 61.0636 0.000427447H140.878C141.986 -0.00387058 143.082 0.218127 144.098 0.652392C145.114 1.08666 146.027 1.72376 146.78 2.52344C147.534 3.32313 148.11 4.26802 148.474 5.29845C148.838 6.32887 148.981 7.42243 148.894 8.51004L137.783 174.845C137.596 177.136 136.55 179.277 134.849 180.851C133.147 182.424 130.911 183.316 128.578 183.354Z" fill="#78838D"/>
<path d="M132.2 163.979H47.7588C47.1272 163.985 46.5011 163.862 45.9203 163.617C45.3396 163.373 44.817 163.011 44.3857 162.557C43.9544 162.102 43.6239 161.564 43.4152 160.976C43.2065 160.389 43.1242 159.765 43.1736 159.145L52.8703 14.3334C52.9751 13.035 53.566 11.8212 54.5283 10.928C55.4906 10.0347 56.7555 9.52563 58.0774 9.49967H142.539C143.171 9.4931 143.797 9.61614 144.377 9.86096C144.958 10.1058 145.481 10.467 145.912 10.9217C146.343 11.3764 146.674 11.9145 146.883 12.5019C147.091 13.0893 147.174 13.713 147.124 14.3334L137.427 159.145C137.322 160.447 136.728 161.663 135.762 162.557C134.795 163.451 133.525 163.958 132.2 163.979V163.979Z" fill="white"/>
<path d="M116.449 9.49966H99.6794L59.0545 163.979H75.8238L116.449 9.49966Z" fill="#EDEFF7"/>
<path d="M131.223 9.49966H122.838L82.2131 163.979H90.5977L131.223 9.49966Z" fill="#EDEFF7"/>
<path opacity="0.2" d="M93.0315 175.48C95.2233 173.391 95.3918 170.06 93.4081 168.04C91.4243 166.019 88.0394 166.075 85.8477 168.164C83.656 170.253 83.4874 173.584 85.4712 175.604C87.4549 177.624 90.8398 177.569 93.0315 175.48Z" fill="white"/>
<path opacity="0.2" d="M102.857 4.47736C102.809 5.06394 102.541 5.61192 102.105 6.0141C101.669 6.41627 101.097 6.64371 100.499 6.6519C100.216 6.65272 99.9364 6.59581 99.6768 6.48477C99.4173 6.37373 99.1839 6.21096 98.9913 6.00669C98.7987 5.80243 98.6512 5.5611 98.5579 5.2979C98.4647 5.0347 98.4277 4.75532 98.4494 4.47736C98.4955 3.89022 98.763 3.34136 99.1994 2.93889C99.6357 2.53641 100.209 2.3095 100.807 2.30283C101.09 2.30201 101.37 2.35892 101.63 2.46996C101.889 2.581 102.122 2.74378 102.315 2.94804C102.508 3.1523 102.655 3.39363 102.748 3.65683C102.842 3.92003 102.879 4.1994 102.857 4.47736V4.47736Z" fill="white"/>
<path opacity="0.2" d="M101.859 4.47739C101.835 4.80015 101.689 5.10234 101.45 5.32422C101.211 5.5461 100.896 5.67154 100.568 5.67574C100.411 5.67819 100.256 5.64822 100.111 5.58777C99.9671 5.52732 99.8373 5.43773 99.7304 5.3248C99.6235 5.21186 99.5418 5.07809 99.4907 4.93212C99.4395 4.78616 99.42 4.63124 99.4334 4.47739C99.4573 4.15462 99.6033 3.85244 99.8424 3.63056C100.082 3.40868 100.396 3.28324 100.725 3.27904C100.882 3.27659 101.037 3.30657 101.181 3.36701C101.326 3.42746 101.455 3.51704 101.562 3.62997C101.669 3.74291 101.751 3.87668 101.802 4.02265C101.853 4.16861 101.873 4.32353 101.859 4.47739V4.47739Z" fill="white"/>
</svg>
