<svg width="14" height="14" viewBox="0 0 14 14" fill="none" xmlns="http://www.w3.org/2000/svg">
<path d="M11.9167 9.0687C12.3492 8.0409 12.4488 6.90337 12.2014 5.81605C11.954 4.72873 11.372 3.74629 10.5373 3.00687C9.70258 2.26744 8.65712 1.80821 7.5479 1.69374C6.43867 1.57927 5.32146 1.81532 4.35334 2.3687L3.69201 1.2107C4.70376 0.632441 5.84947 0.329609 7.01481 0.332417C8.18015 0.335224 9.32438 0.643573 10.3333 1.2267C13.3267 2.9547 14.4733 6.6547 13.078 9.74003L13.9727 10.256L11.196 11.732L11.086 8.58936L11.9167 9.0687V9.0687ZM2.08334 4.93136C1.65077 5.95916 1.55119 7.09669 1.79862 8.18401C2.04604 9.27133 2.62801 10.2538 3.46272 10.9932C4.29743 11.7326 5.34289 12.1919 6.45211 12.3063C7.56134 12.4208 8.67855 12.1847 9.64667 11.6314L10.308 12.7894C9.29625 13.3676 8.15055 13.6705 6.9852 13.6676C5.81986 13.6648 4.67563 13.3565 3.66667 12.7734C0.673339 11.0454 -0.473328 7.34536 0.922006 4.26003L0.0266724 3.7447L2.80334 2.2687L2.91334 5.41136L2.08267 4.93203L2.08334 4.93136ZM7.94334 8.88536L6.05601 7.00003L4.17067 8.88536L3.22801 7.9427L6.05667 5.1147L7.94267 7.00003L9.82867 5.1147L10.7713 6.05736L7.94267 8.88536H7.94334Z" fill="white"/>
</svg>
