<svg width="32" height="32" viewBox="0 0 32 32" fill="none" xmlns="http://www.w3.org/2000/svg">
<rect width="32" height="32" rx="8" fill="#E1E3ED"/>
<path d="M16 24.3333C11.3975 24.3333 7.66663 20.6025 7.66663 16C7.66663 11.3975 11.3975 7.66663 16 7.66663C20.6025 7.66663 24.3333 11.3975 24.3333 16C24.3333 20.6025 20.6025 24.3333 16 24.3333ZM16 22.6666C17.7681 22.6666 19.4638 21.9642 20.714 20.714C21.9642 19.4638 22.6666 17.7681 22.6666 16C22.6666 14.2318 21.9642 12.5362 20.714 11.2859C19.4638 10.0357 17.7681 9.33329 16 9.33329C14.2318 9.33329 12.5362 10.0357 11.2859 11.2859C10.0357 12.5362 9.33329 14.2318 9.33329 16C9.33329 17.7681 10.0357 19.4638 11.2859 20.714C12.5362 21.9642 14.2318 22.6666 16 22.6666V22.6666ZM15.1666 11.8333H16.8333V13.5H15.1666V11.8333ZM15.1666 15.1666H16.8333V20.1666H15.1666V15.1666Z" fill="#535D66"/>
</svg>
