<svg width="32" height="32" viewBox="0 0 32 32" fill="none" xmlns="http://www.w3.org/2000/svg">
<rect width="32" height="32" rx="8" fill="#E1E3ED"/>
<path d="M15.1666 6.45246C15.4416 6.42829 15.7191 6.41663 16 6.41663C21.2925 6.41663 25.5833 10.7075 25.5833 16C25.5833 16.2808 25.5716 16.5583 25.5475 16.8333H24.2925C23.8741 21.0441 20.3208 24.3333 16 24.3333C11.3975 24.3333 7.66663 20.6025 7.66663 16C7.66663 11.6791 10.9558 8.12579 15.1666 7.70829V6.45163V6.45246ZM15.1666 16.8333V9.38496C13.4856 9.59886 11.949 10.4448 10.8693 11.751C9.78956 13.0571 9.24769 14.7253 9.35381 16.4167C9.45993 18.108 10.2061 19.6954 11.4406 20.8563C12.6751 22.0172 14.3053 22.6645 16 22.6666C17.6238 22.6666 19.1918 22.074 20.4097 21C21.6277 19.9259 22.4118 18.4444 22.615 16.8333H15.1666ZM23.8733 15.1666C23.6822 13.3649 22.8791 11.6831 21.598 10.4019C20.3168 9.12078 18.635 8.31767 16.8333 8.12663V15.1666H23.8733Z" fill="#535D66"/>
</svg>
