<svg width="32" height="32" viewBox="0 0 32 32" fill="none" xmlns="http://www.w3.org/2000/svg">
<rect width="32" height="32" rx="8" fill="#EDEFF7"/>
<path d="M16 24.3333C11.3975 24.3333 7.66663 20.6025 7.66663 16C7.66663 11.3975 11.3975 7.66663 16 7.66663C20.6025 7.66663 24.3333 11.3975 24.3333 16C24.3333 20.6025 20.6025 24.3333 16 24.3333ZM16 22.6666C17.7681 22.6666 19.4638 21.9642 20.714 20.714C21.9642 19.4638 22.6666 17.7681 22.6666 16C22.6666 14.2318 21.9642 12.5362 20.714 11.2859C19.4638 10.0357 17.7681 9.33329 16 9.33329C14.2318 9.33329 12.5362 10.0357 11.2859 11.2859C10.0357 12.5362 9.33329 14.2318 9.33329 16C9.33329 17.7681 10.0357 19.4638 11.2859 20.714C12.5362 21.9642 14.2318 22.6666 16 22.6666V22.6666ZM15.1666 18.5H16.8333V20.1666H15.1666V18.5ZM16.8333 17.1291V17.6666H15.1666V16.4166C15.1666 16.1956 15.2544 15.9837 15.4107 15.8274C15.567 15.6711 15.7789 15.5833 16 15.5833C16.2367 15.5833 16.4686 15.516 16.6686 15.3894C16.8686 15.2628 17.0285 15.0819 17.1298 14.8679C17.231 14.654 17.2694 14.4156 17.2405 14.1807C17.2116 13.9457 17.1166 13.7238 16.9665 13.5407C16.8164 13.3577 16.6174 13.221 16.3926 13.1466C16.1679 13.0722 15.9267 13.0632 15.697 13.1205C15.4673 13.1779 15.2586 13.2993 15.0953 13.4706C14.9319 13.642 14.8205 13.8562 14.7741 14.0883L13.1391 13.7608C13.2405 13.2542 13.4746 12.7836 13.8174 12.3971C14.1602 12.0106 14.5996 11.7221 15.0905 11.5611C15.5813 11.4 16.1062 11.3722 16.6114 11.4805C17.1165 11.5887 17.5839 11.8292 17.9656 12.1773C18.3474 12.5254 18.6299 12.9686 18.7842 13.4617C18.9385 13.9547 18.9592 14.4799 18.844 14.9835C18.7288 15.4872 18.482 15.9512 18.1287 16.3282C17.7754 16.7052 17.3284 16.9816 16.8333 17.1291V17.1291Z" fill="#535D66"/>
</svg>
