<svg width="32" height="32" viewBox="0 0 32 32" fill="none" xmlns="http://www.w3.org/2000/svg">
<rect width="32" height="32" rx="8" fill="#E1E3ED"/>
<path d="M14.3108 21H17.6891C17.7991 19.9983 18.31 19.1716 19.1391 18.2691C19.2333 18.1675 19.8325 17.5466 19.9033 17.4583C20.4919 16.723 20.8608 15.8364 20.9676 14.9006C21.0743 13.9648 20.9146 13.0179 20.5068 12.1689C20.099 11.3199 19.4597 10.6034 18.6626 10.1018C17.8654 9.60021 16.9427 9.33398 16.0009 9.33378C15.059 9.33358 14.1362 9.59941 13.3389 10.1007C12.5415 10.6019 11.9018 11.3182 11.4937 12.167C11.0855 13.0158 10.9254 13.9627 11.0318 14.8985C11.1382 15.8343 11.5067 16.7211 12.095 17.4566C12.1666 17.5458 12.7675 18.1675 12.86 18.2683C13.69 19.1716 14.2008 19.9983 14.3108 21V21ZM17.6666 22.6666H14.3333V23.5H17.6666V22.6666ZM10.795 18.5C10.0101 17.5194 9.51826 16.337 9.37602 15.0891C9.23378 13.8412 9.44697 12.5785 9.99101 11.4464C10.5351 10.3144 11.3878 9.35904 12.4511 8.69047C13.5144 8.02189 14.7449 7.66728 16.0009 7.66748C17.2569 7.66768 18.4873 8.02269 19.5503 8.6916C20.6134 9.36052 21.4658 10.3161 22.0095 11.4484C22.5532 12.5806 22.766 13.8434 22.6233 15.0912C22.4807 16.3391 21.9885 17.5213 21.2033 18.5016C20.6866 19.145 19.3333 20.1666 19.3333 21.4166V23.5C19.3333 23.942 19.1577 24.3659 18.8451 24.6785C18.5326 24.9911 18.1087 25.1666 17.6666 25.1666H14.3333C13.8913 25.1666 13.4673 24.9911 13.1548 24.6785C12.8422 24.3659 12.6666 23.942 12.6666 23.5V21.4166C12.6666 20.1666 11.3125 19.145 10.795 18.5ZM16.8333 14.3366H18.9166L15.1666 19.3366V16.0033H13.0833L16.8333 11V14.3375V14.3366Z" fill="#535D66"/>
</svg>
