<svg width="32" height="32" viewBox="0 0 32 32" fill="none" xmlns="http://www.w3.org/2000/svg">
<rect width="32" height="32" rx="8" fill="#E1E3ED"/>
<path d="M22.1458 18.5858C22.6865 17.301 22.811 15.8791 22.5017 14.52C22.1924 13.1608 21.465 11.9328 20.4216 11.0085C19.3782 10.0842 18.0714 9.51017 16.6849 9.36708C15.2983 9.224 13.9018 9.51906 12.6917 10.2108L11.865 8.76328C13.1297 8.04046 14.5618 7.66192 16.0185 7.66543C17.4752 7.66894 18.9055 8.05437 20.1667 8.78328C23.9083 10.9433 25.3417 15.5683 23.5975 19.4249L24.7158 20.0699L21.245 21.9149L21.1075 17.9866L22.1458 18.5858ZM9.85416 13.4141C9.31345 14.6989 9.18898 16.1208 9.49826 17.4799C9.80753 18.8391 10.535 20.0671 11.5784 20.9914C12.6218 21.9157 13.9286 22.4897 15.3151 22.6328C16.7017 22.7759 18.0982 22.4808 19.3083 21.7891L20.135 23.2366C18.8703 23.9594 17.4382 24.338 15.9815 24.3345C14.5248 24.331 13.0945 23.9455 11.8333 23.2166C8.09166 21.0566 6.65833 16.4316 8.40249 12.5749L7.28333 11.9308L10.7542 10.0858L10.8917 14.0141L9.85333 13.4149L9.85416 13.4141ZM17.1792 18.3566L14.82 15.9999L12.4633 18.3566L11.285 17.1783L14.8208 13.6433L17.1783 15.9999L19.5358 13.6433L20.7142 14.8216L17.1783 18.3566H17.1792Z" fill="#535D66"/>
</svg>
